<?xml version="1.0" encoding="UTF-8"?>
<svg width="200" height="200" viewBox="0 0 200 200" fill="none" xmlns="http://www.w3.org/2000/svg">
  <!-- Neural network background pattern -->
  <g opacity="0.1">
    <circle cx="40" cy="40" r="4" fill="#6366F1"/>
    <circle cx="100" cy="40" r="4" fill="#6366F1"/>
    <circle cx="160" cy="40" r="4" fill="#6366F1"/>
    <circle cx="70" cy="100" r="4" fill="#6366F1"/>
    <circle cx="130" cy="100" r="4" fill="#6366F1"/>
    <circle cx="100" cy="160" r="4" fill="#6366F1"/>
    <path d="M40 40L70 100M40 40L130 100M100 40L70 100M100 40L130 100M160 40L70 100M160 40L130 100M70 100L100 160M130 100L100 160" stroke="#6366F1" stroke-width="1"/>
  </g>
  
  <!-- Main logo shape -->
  <path d="M100 30C61.34 30 30 61.34 30 100C30 138.66 61.34 170 100 170C138.66 170 170 138.66 170 100C170 61.34 138.66 30 100 30ZM100 50C127.596 50 150 72.404 150 100C150 127.596 127.596 150 100 150C72.404 150 50 127.596 50 100C50 72.404 72.404 50 100 50Z" fill="url(#paint0_linear)"/>
  
  <!-- Center circle with gradient -->
  <circle cx="100" cy="100" r="30" fill="url(#paint1_radial)"/>
  
  <!-- Pulsing rings -->
  <circle cx="100" cy="100" r="45" stroke="url(#paint2_linear)" stroke-width="2" stroke-dasharray="4 4"/>
  <circle cx="100" cy="100" r="60" stroke="url(#paint3_linear)" stroke-width="1.5" stroke-dasharray="6 6"/>
  
  <!-- Gradients definitions -->
  <defs>
    <linearGradient id="paint0_linear" x1="30" y1="30" x2="170" y2="170" gradientUnits="userSpaceOnUse">
      <stop offset="0" stop-color="#6366F1"/>
      <stop offset="1" stop-color="#4F46E5"/>
    </linearGradient>
    
    <radialGradient id="paint1_radial" cx="0" cy="0" r="1" gradientUnits="userSpaceOnUse" gradientTransform="translate(100 100) rotate(90) scale(30)">
      <stop offset="0" stop-color="#A5B4FC"/>
      <stop offset="1" stop-color="#6366F1"/>
    </radialGradient>
    
    <linearGradient id="paint2_linear" x1="55" y1="55" x2="145" y2="145" gradientUnits="userSpaceOnUse">
      <stop offset="0" stop-color="#6366F1"/>
      <stop offset="1" stop-color="#4F46E5"/>
    </linearGradient>
    
    <linearGradient id="paint3_linear" x1="40" y1="40" x2="160" y2="160" gradientUnits="userSpaceOnUse">
      <stop offset="0" stop-color="#818CF8"/>
      <stop offset="1" stop-color="#6366F1"/>
    </linearGradient>
  </defs>
</svg>